<svg xmlns="http://www.w3.org/2000/svg" width="600" height="120.399" viewBox="0 0 600 120.399">
  <g id="Grupo_3949" data-name="Grupo 3949" transform="translate(2623 770.689)">
    <g id="Grupo_3439" data-name="Grupo 3439" transform="translate(-2623 -770.689)">
      <g id="Grupo_3438" data-name="Grupo 3438">
        <g id="Grupo_3435" data-name="Grupo 3435">
          <path id="Trazado_1946" data-name="Trazado 1946" d="M-2520.614-731.32l-33.034-.159h-25.136v80.153h27.08V-712.7h18.89c12.984.039,13.057,11.641,13.17,22.62v38.752h26.8v-38.784c0-34.259-10.986-41.211-27.774-41.211m93.628-.159-17.151,57.559-1.121,2.694s-17.285-59.053-17.569-60.253h-28.741c.787,2.166,29.493,79.1,29.855,80.153h31.352c.372-1.054,28.841-77.987,29.676-80.153Zm169.252,39.216s23.521-36.808,25.1-39.216H-2261.6c-.422.878-13.567,25.422-13.567,25.422s-12.055-24.509-12.522-25.422h-31.656c1.535,2.377,25.343,39.216,25.343,39.216l-15,22.447c-23.861.757-31.589.757-38.894.757l-2.226-.02c-15.382,0-24.625-3.838-26.19-14.829l-.126-.916h56.96v-4.315c0-13.621-3.975-44.99-40.71-44.99-26.15,0-43.254,16.361-43.254,41.847,0,24.925,19,41.909,47.033,41.991l26.448-.4,25.189-.636h15.454c.481-.864,14.152-26.457,14.152-26.457s11.687,25.593,12.15,26.457h32.257c-1.679-2.363-26.971-40.937-26.971-40.937m-118.287-8.5c.475-5.393,2.96-15.548,14.79-15.548,12.619,0,14.922,9.258,15.115,15.548ZM-2623-651.326h26.842v-80.153H-2623Zm0-95.256h26.842v-24.107H-2623Z" transform="translate(2623 770.689)" fill="#a20234"/>
        </g>
        <g id="Grupo_3437" data-name="Grupo 3437" transform="translate(414.352 69.446)">
          <g id="Grupo_3436" data-name="Grupo 3436">
            <path id="Trazado_1947" data-name="Trazado 1947" d="M-2203.768-700.264h14.87a28.1,28.1,0,0,1,5.708.6,15.54,15.54,0,0,1,5.18,2.043,11.283,11.283,0,0,1,3.734,3.912,12.128,12.128,0,0,1,1.445,6.2,10.48,10.48,0,0,1-2.409,6.871,11.313,11.313,0,0,1-6.446,3.84v.14a13.163,13.163,0,0,1,8.051,3.771,11.774,11.774,0,0,1,3.2,8.7,12.377,12.377,0,0,1-1.3,5.672,12.429,12.429,0,0,1-3.692,4.37,17.74,17.74,0,0,1-5.838,2.784,28.029,28.029,0,0,1-7.734.986h-14.768Zm5.074,21.846h10.218a16.7,16.7,0,0,0,3.7-.422,10.3,10.3,0,0,0,3.418-1.444,7.737,7.737,0,0,0,2.5-2.714,8.371,8.371,0,0,0,.951-4.157,8.02,8.02,0,0,0-.951-4.052,7.9,7.9,0,0,0-2.573-2.714,11.038,11.038,0,0,0-3.8-1.514,22.6,22.6,0,0,0-4.651-.459h-8.809Zm0,23.68h9.443a25.317,25.317,0,0,0,5.251-.529,13.477,13.477,0,0,0,4.369-1.691,9.022,9.022,0,0,0,3-3.031,8.5,8.5,0,0,0,1.127-4.475q0-4.932-3.347-7.364t-9.479-2.432h-10.359Z" transform="translate(2203.768 700.264)" fill="#231f20"/>
            <path id="Trazado_1948" data-name="Trazado 1948" d="M-2139.9-671.715q0-4.264-2.255-6.365t-6.554-2.1a14.139,14.139,0,0,0-5.5,1.057,13.165,13.165,0,0,0-4.3,2.818l-2.677-3.171a15.847,15.847,0,0,1,5.391-3.382,20.284,20.284,0,0,1,7.576-1.339,16.4,16.4,0,0,1,5,.741,11.874,11.874,0,0,1,4.087,2.219,10.071,10.071,0,0,1,2.749,3.735,13.116,13.116,0,0,1,.986,5.285v14.447q0,1.9.141,3.946a27.609,27.609,0,0,0,.423,3.453h-4.3q-.21-1.2-.352-2.607a27.313,27.313,0,0,1-.141-2.748h-.141a13.888,13.888,0,0,1-5.109,4.757,15.081,15.081,0,0,1-6.871,1.444,15.356,15.356,0,0,1-3.911-.529,10.913,10.913,0,0,1-3.665-1.733,9.776,9.776,0,0,1-2.748-3.112,9.248,9.248,0,0,1-1.092-4.666,8.885,8.885,0,0,1,1.938-6.045,11.627,11.627,0,0,1,5.179-3.323,30.367,30.367,0,0,1,7.435-1.415q4.191-.318,8.7-.319Zm-1.409,4.855q-2.959,0-5.955.246a26.046,26.046,0,0,0-5.427.987,10.266,10.266,0,0,0-3.981,2.15,4.8,4.8,0,0,0-1.55,3.734,5.987,5.987,0,0,0,.669,2.961,5.466,5.466,0,0,0,1.8,1.938,7.673,7.673,0,0,0,2.5,1.057,12.411,12.411,0,0,0,2.783.316,10.967,10.967,0,0,0,4.511-.88,9.522,9.522,0,0,0,3.311-2.4,10.59,10.59,0,0,0,2.044-3.488,12.253,12.253,0,0,0,.705-4.158v-2.466Z" transform="translate(2203.768 700.264)" fill="#231f20"/>
            <path id="Trazado_1949" data-name="Trazado 1949" d="M-2120.324-683.351q.14,1.341.211,2.961t.071,2.677h.141a10.841,10.841,0,0,1,4.58-4.685,13.367,13.367,0,0,1,6.7-1.8q6.271,0,9.408,3.736t3.136,9.866v20.224h-4.792v-18.252a24.14,24.14,0,0,0-.423-4.721,9.906,9.906,0,0,0-1.445-3.63,6.9,6.9,0,0,0-2.748-2.36,9.828,9.828,0,0,0-4.334-.846,9.235,9.235,0,0,0-3.7.776,9.085,9.085,0,0,0-3.206,2.36,11.775,11.775,0,0,0-2.255,4.017,17.509,17.509,0,0,0-.846,5.743v16.913h-4.792v-25.722q0-1.336-.07-3.453t-.212-3.806Z" transform="translate(2203.768 700.264)" fill="#231f20"/>
            <path id="Trazado_1950" data-name="Trazado 1950" d="M-2061.255-675.809a9.115,9.115,0,0,0-3.489-3.137,10.328,10.328,0,0,0-4.968-1.233,12.832,12.832,0,0,0-5.215,1.022,11.777,11.777,0,0,0-3.981,2.819,12.363,12.363,0,0,0-2.538,4.228,15.3,15.3,0,0,0-.88,5.25,15.005,15.005,0,0,0,.88,5.215,12.752,12.752,0,0,0,2.5,4.193,11.406,11.406,0,0,0,3.947,2.818,12.8,12.8,0,0,0,5.214,1.023,10.993,10.993,0,0,0,5.356-1.2,10.964,10.964,0,0,0,3.594-3.1l3.595,2.678a15.713,15.713,0,0,1-5.18,4.158,16.18,16.18,0,0,1-7.365,1.55,19.3,19.3,0,0,1-7.258-1.3,16.016,16.016,0,0,1-5.532-3.63,16.423,16.423,0,0,1-3.559-5.495,18.445,18.445,0,0,1-1.269-6.907,18.434,18.434,0,0,1,1.269-6.905,16.436,16.436,0,0,1,3.559-5.5,16.072,16.072,0,0,1,5.532-3.629,19.3,19.3,0,0,1,7.258-1.3,17.208,17.208,0,0,1,6.731,1.445,13.191,13.191,0,0,1,5.532,4.263Z" transform="translate(2203.768 700.264)" fill="#231f20"/>
            <path id="Trazado_1951" data-name="Trazado 1951" d="M-2018.12-666.86a18.014,18.014,0,0,1-1.3,6.907,16.6,16.6,0,0,1-3.63,5.495,16.4,16.4,0,0,1-5.567,3.63,18.91,18.91,0,0,1-7.118,1.3,18.714,18.714,0,0,1-7.047-1.3,16.4,16.4,0,0,1-5.567-3.63,16.578,16.578,0,0,1-3.629-5.495,17.974,17.974,0,0,1-1.3-6.907,17.964,17.964,0,0,1,1.3-6.905,16.591,16.591,0,0,1,3.629-5.5,16.453,16.453,0,0,1,5.567-3.629,18.715,18.715,0,0,1,7.047-1.3,18.912,18.912,0,0,1,7.118,1.3,16.463,16.463,0,0,1,5.567,3.629,16.611,16.611,0,0,1,3.63,5.5A18,18,0,0,1-2018.12-666.86Zm-5.074,0a15.1,15.1,0,0,0-.881-5.18,12.692,12.692,0,0,0-2.5-4.228,11.847,11.847,0,0,0-3.946-2.854,12.458,12.458,0,0,0-5.215-1.057,12.209,12.209,0,0,0-5.179,1.057,11.934,11.934,0,0,0-3.912,2.854,12.671,12.671,0,0,0-2.5,4.228,15.078,15.078,0,0,0-.881,5.18,15.064,15.064,0,0,0,.881,5.179,12.666,12.666,0,0,0,2.5,4.229,11.5,11.5,0,0,0,3.912,2.818,12.547,12.547,0,0,0,5.179,1.023,12.8,12.8,0,0,0,5.215-1.023,11.42,11.42,0,0,0,3.946-2.818,12.687,12.687,0,0,0,2.5-4.229A15.09,15.09,0,0,0-2023.194-666.86Z" transform="translate(2203.768 700.264)" fill="#231f20"/>
          </g>
        </g>
      </g>
    </g>
  </g>
</svg>
