<svg xmlns="http://www.w3.org/2000/svg" width="600" height="120.399" viewBox="0 0 600 120.399">
  <g id="Grupo_3949" data-name="Grupo 3949" transform="translate(3072.913 1077)">
    <g id="Grupo_3433" data-name="Grupo 3433" transform="translate(-3072.913 -1077)">
      <g id="Grupo_3430" data-name="Grupo 3430">
        <path id="Trazado_1940" data-name="Trazado 1940" d="M-2978.758-1037.632l-30.379-.157h-23.114v80.155h24.9v-61.376h17.372c11.94.041,12.007,11.643,12.112,22.621v38.755h24.649v-38.786c0-34.258-10.107-41.211-25.542-41.211m86.1-.157-15.773,57.557-1.028,2.694s-15.9-59.05-16.159-60.251h-26.428c.723,2.167,27.123,79.1,27.454,80.155h28.83c.343-1.057,26.524-77.988,27.29-80.155Zm155.646,39.215s21.629-36.809,23.084-39.215h-26.646c-.39.876-12.476,25.419-12.476,25.419s-11.087-24.508-11.513-25.419h-29.111c1.41,2.374,23.3,39.215,23.3,39.215l-13.794,22.449c-21.941.754-29.048.754-35.766.754l-2.045-.018c-14.146,0-22.646-3.837-24.086-14.829l-.117-.916h52.38v-4.316c0-13.619-3.653-44.988-37.436-44.988-24.046,0-39.773,16.359-39.773,41.846,0,24.928,17.467,41.91,43.248,41.992l24.323-.4,23.164-.632h14.212c.439-.867,13.012-26.458,13.012-26.458s10.747,25.591,11.174,26.458h29.663c-1.544-2.366-24.8-40.94-24.8-40.94m-108.778-8.5c.436-5.394,2.722-15.547,13.6-15.547,11.6,0,13.719,9.259,13.9,15.547Zm-227.122,49.436h24.685v-80.155h-24.685Zm0-95.26h24.685V-1077h-24.685Z" transform="translate(3072.913 1077)" fill="#fff"/>
      </g>
      <g id="Grupo_3432" data-name="Grupo 3432" transform="translate(429.28 73.543)">
        <g id="Grupo_3431" data-name="Grupo 3431">
          <path id="Trazado_1941" data-name="Trazado 1941" d="M-2980.793-1061.525h13.673a25.7,25.7,0,0,1,5.248.553,14.178,14.178,0,0,1,4.767,1.879,10.365,10.365,0,0,1,3.432,3.595,11.145,11.145,0,0,1,1.33,5.7,9.643,9.643,0,0,1-2.217,6.319,10.405,10.405,0,0,1-5.927,3.532v.125a12.1,12.1,0,0,1,7.4,3.47,10.818,10.818,0,0,1,2.942,8,11.378,11.378,0,0,1-1.2,5.219,11.418,11.418,0,0,1-3.395,4.017,16.363,16.363,0,0,1-5.37,2.562,25.89,25.89,0,0,1-7.11.9h-13.58Zm4.666,20.088h9.4a15.358,15.358,0,0,0,3.4-.39,9.432,9.432,0,0,0,3.144-1.327,7.14,7.14,0,0,0,2.3-2.494,7.705,7.705,0,0,0,.875-3.826,7.374,7.374,0,0,0-.875-3.725,7.213,7.213,0,0,0-2.368-2.494,10.114,10.114,0,0,0-3.5-1.394,20.84,20.84,0,0,0-4.277-.422h-8.1Zm0,21.774h8.685a23.134,23.134,0,0,0,4.825-.485,12.325,12.325,0,0,0,4.018-1.553,8.367,8.367,0,0,0,2.758-2.788,7.87,7.87,0,0,0,1.034-4.118q0-4.532-3.077-6.771t-8.717-2.235h-9.525Z" transform="translate(2980.793 1061.525)" fill="#fff"/>
          <path id="Trazado_1942" data-name="Trazado 1942" d="M-2950.483-1046.518q0-3.924-2.071-5.855a8.545,8.545,0,0,0-6.027-1.93,13.076,13.076,0,0,0-5.055.971,12.084,12.084,0,0,0-3.954,2.595l-2.462-2.917a14.538,14.538,0,0,1,4.96-3.109,18.62,18.62,0,0,1,6.964-1.23,15.174,15.174,0,0,1,4.6.678,10.954,10.954,0,0,1,3.758,2.042,9.255,9.255,0,0,1,2.528,3.436,12.069,12.069,0,0,1,.908,4.858v13.284q0,1.751.126,3.633a26.06,26.06,0,0,0,.389,3.172h-3.951q-.193-1.1-.325-2.394t-.126-2.527h-.134a12.8,12.8,0,0,1-4.7,4.374,13.9,13.9,0,0,1-6.319,1.327,14.182,14.182,0,0,1-3.595-.485,10.1,10.1,0,0,1-3.372-1.6,9,9,0,0,1-2.528-2.862,8.5,8.5,0,0,1-1-4.29,8.175,8.175,0,0,1,1.783-5.558,10.7,10.7,0,0,1,4.763-3.055,27.794,27.794,0,0,1,6.838-1.3q3.854-.3,8-.293Zm-1.294,4.465q-2.723,0-5.477.227a23.882,23.882,0,0,0-4.989.908,9.44,9.44,0,0,0-3.662,1.975,4.424,4.424,0,0,0-1.427,3.436,5.463,5.463,0,0,0,.619,2.72,5,5,0,0,0,1.649,1.783,7.037,7.037,0,0,0,2.3.971,11.239,11.239,0,0,0,2.562.292,10.021,10.021,0,0,0,4.147-.812,8.753,8.753,0,0,0,3.047-2.2,9.845,9.845,0,0,0,1.879-3.209,11.28,11.28,0,0,0,.645-3.821v-2.269Z" transform="translate(3009.212 1072.771)" fill="#fff"/>
          <path id="Trazado_1943" data-name="Trazado 1943" d="M-2959.253-1057.219c.088.824.15,1.728.2,2.725s.063,1.812.063,2.46h.13a9.975,9.975,0,0,1,4.215-4.306,12.242,12.242,0,0,1,6.155-1.653q5.763,0,8.65,3.432a13.657,13.657,0,0,1,2.884,9.073v18.6h-4.407v-16.782a22.2,22.2,0,0,0-.39-4.344,9.134,9.134,0,0,0-1.326-3.335,6.358,6.358,0,0,0-2.527-2.172,9.04,9.04,0,0,0-3.988-.779,8.511,8.511,0,0,0-3.4.716,8.318,8.318,0,0,0-2.945,2.168,10.865,10.865,0,0,0-2.076,3.7,16.213,16.213,0,0,0-.774,5.282v15.551h-4.407v-23.654c0-.82-.024-1.879-.066-3.172s-.109-2.465-.192-3.5Z" transform="translate(3035.985 1072.771)" fill="#fff"/>
          <path id="Trazado_1944" data-name="Trazado 1944" d="M-2931.18-1050.285a8.4,8.4,0,0,0-3.211-2.883,9.5,9.5,0,0,0-4.569-1.135,11.752,11.752,0,0,0-4.792.942,10.821,10.821,0,0,0-3.661,2.591,11.357,11.357,0,0,0-2.336,3.888,14.072,14.072,0,0,0-.808,4.829,13.8,13.8,0,0,0,.808,4.8,11.682,11.682,0,0,0,2.3,3.854,10.45,10.45,0,0,0,3.628,2.59,11.779,11.779,0,0,0,4.8.941,10.163,10.163,0,0,0,4.926-1.1,10.167,10.167,0,0,0,3.306-2.85l3.3,2.46a14.431,14.431,0,0,1-4.763,3.826,14.913,14.913,0,0,1-6.771,1.423,17.737,17.737,0,0,1-6.676-1.2,14.8,14.8,0,0,1-5.089-3.339,15.047,15.047,0,0,1-3.269-5.056,16.933,16.933,0,0,1-1.167-6.349,16.969,16.969,0,0,1,1.167-6.353,15.062,15.062,0,0,1,3.269-5.051,14.8,14.8,0,0,1,5.089-3.34,17.747,17.747,0,0,1,6.676-1.2,15.8,15.8,0,0,1,6.189,1.327,12.134,12.134,0,0,1,5.085,3.921Z" transform="translate(3062.234 1072.771)" fill="#fff"/>
          <path id="Trazado_1945" data-name="Trazado 1945" d="M-2915.389-1042.053a16.6,16.6,0,0,1-1.2,6.349,15.284,15.284,0,0,1-3.34,5.056,15.129,15.129,0,0,1-5.118,3.339,17.393,17.393,0,0,1-6.546,1.2,17.191,17.191,0,0,1-6.481-1.2,15.1,15.1,0,0,1-5.119-3.339,15.152,15.152,0,0,1-3.335-5.056,16.424,16.424,0,0,1-1.2-6.349,16.459,16.459,0,0,1,1.2-6.353,15.167,15.167,0,0,1,3.335-5.051,15.105,15.105,0,0,1,5.119-3.34,17.2,17.2,0,0,1,6.481-1.2,17.4,17.4,0,0,1,6.546,1.2,15.13,15.13,0,0,1,5.118,3.34,15.3,15.3,0,0,1,3.34,5.051A16.64,16.64,0,0,1-2915.389-1042.053Zm-4.666,0a13.84,13.84,0,0,0-.812-4.762,11.637,11.637,0,0,0-2.3-3.888,10.959,10.959,0,0,0-3.629-2.628,11.519,11.519,0,0,0-4.8-.971,11.278,11.278,0,0,0-4.763.971,11.027,11.027,0,0,0-3.6,2.628,11.664,11.664,0,0,0-2.3,3.888,13.861,13.861,0,0,0-.808,4.762,13.878,13.878,0,0,0,.808,4.763,11.713,11.713,0,0,0,2.3,3.888,10.575,10.575,0,0,0,3.6,2.59,11.533,11.533,0,0,0,4.763.941,11.78,11.78,0,0,0,4.8-.941,10.517,10.517,0,0,0,3.629-2.59,11.685,11.685,0,0,0,2.3-3.888A13.857,13.857,0,0,0-2920.055-1042.053Z" transform="translate(3086.109 1072.771)" fill="#fff"/>
        </g>
      </g>
    </g>
  </g>
</svg>
