<svg xmlns="http://www.w3.org/2000/svg" width="384.404" height="52.856" viewBox="0 0 384.404 52.856">
  <path id="Unión_2" data-name="Unión 2" d="M46.821,39.045l4.382-.238A21.73,21.73,0,0,0,91.588,27.455,21.837,21.837,0,0,0,69.829,5.516a21.574,21.574,0,0,0-13.964,5.1l-5.459-.159A25.671,25.671,0,0,1,95.542,27.455a25.682,25.682,0,0,1-48.722,11.59Zm22.731,2.865V39.619a11.765,11.765,0,0,1-8.015-2.651l3.44-3.893A6.153,6.153,0,0,0,69.552,35.1v-5.53l-2.37-.718c-3.276-1.048-5.029-2.815-5.029-6.119,0-4.124,3.569-6.61,7.4-7.067v-2.29h2.14v2.29a11.423,11.423,0,0,1,6.945,2.061l-3.116,3.829a6.155,6.155,0,0,0-3.83-1.374v5.2l3.115.914c2.857.851,4.706,2.88,4.706,5.923,0,4.58-3.568,6.97-7.821,7.4v2.291Zm2.14-6.871c1.331-.261,2.758-.917,2.758-2.421,0-1.408-1-1.833-2.139-2.259l-.618-.229ZM67.216,22.506c0,1.964,1.785,2.159,2.336,2.355v-4.58C68.351,20.543,67.216,21.132,67.216,22.506ZM370,37.3l2.2-2.42a5.28,5.28,0,0,0,4.268,2.288c1.892,0,3.036-1.5,3.036-3.651,0-2.508-1.759-3.3-3.96-4.136-2.244-.836-4.576-2.2-4.576-6.2a6.275,6.275,0,0,1,6.511-6.468,7.31,7.31,0,0,1,5.765,2.464l-2.156,2.464A4.284,4.284,0,0,0,377.48,19.7a3.032,3.032,0,0,0-2.947,3.344c0,2.068,1.144,2.728,3.476,3.608,2.464.924,5.06,2.64,5.06,6.6,0,4.576-2.9,7.041-6.732,7.041A8.111,8.111,0,0,1,370,37.3Zm-70.136-8.756c0-7.084,2.948-11.836,8.008-11.836,5.016,0,8.052,4.752,8.052,11.836,0,7-3.037,11.749-8.052,11.749C302.9,40.293,299.864,35.541,299.864,28.544Zm3.872-.044c0,4.8,1.276,8.492,4.136,8.492,2.9,0,4.181-3.7,4.181-8.492,0-4.839-1.32-8.536-4.181-8.536S303.736,23.661,303.736,28.5Zm-51.392.044c0-7.084,2.948-11.836,8.008-11.836,5.016,0,8.052,4.752,8.052,11.836,0,7-3.037,11.749-8.052,11.749C255.38,40.293,252.344,35.541,252.344,28.544Zm3.873-.044c0,4.8,1.275,8.492,4.136,8.492,2.9,0,4.18-3.7,4.18-8.492,0-4.839-1.319-8.536-4.18-8.536S256.216,23.661,256.216,28.5Zm-35.464.044c0-7,3.212-11.836,8.052-11.836,5.412,0,7.436,4.84,7.436,10.956v1.8h-11.7c.044,4.18,1.5,7.48,4.444,7.48,1.98,0,3.081-1.452,3.785-3.124l2.816,1.628c-1.145,2.816-3.344,4.84-6.732,4.84C223.832,40.293,220.752,35.893,220.752,28.544Zm3.872-2.111h7.832c0-3.829-1.188-6.468-3.74-6.468C225.725,19.965,224.624,24.057,224.624,26.433Zm-24.992,1.936c0-6.82,2.42-11.66,7.041-11.66a5.155,5.155,0,0,1,5.06,3.916h.088V6.28h3.74V39.544h-3.652V36.068h-.087c-.7,2.376-2.112,4.225-5.148,4.225C202.184,40.293,199.632,35.232,199.632,28.369Zm3.873.131c0,4.752,1.231,8.492,4.135,8.492,2.86,0,4.268-3.74,4.268-8.492,0-4.8-1.452-8.536-4.268-8.536C204.736,19.965,203.5,23.7,203.5,28.5Zm-23.189.044c0-7,3.212-11.836,8.052-11.836,5.412,0,7.436,4.84,7.436,10.956v1.8H184.1c.043,4.18,1.5,7.48,4.443,7.48,1.98,0,3.081-1.452,3.785-3.124l2.816,1.628c-1.144,2.816-3.344,4.84-6.732,4.84C183.4,40.293,180.316,35.893,180.316,28.544Zm3.872-2.111h7.833c0-3.829-1.188-6.468-3.74-6.468C185.288,19.965,184.188,24.057,184.188,26.433Zm-45.144,2.111c0-7.084,2.948-11.836,8.008-11.836,5.017,0,8.052,4.752,8.052,11.836,0,7-3.036,11.749-8.052,11.749C142.08,40.293,139.044,35.541,139.044,28.544Zm3.873-.044c0,4.8,1.275,8.492,4.136,8.492,2.9,0,4.18-3.7,4.18-8.492,0-4.839-1.32-8.536-4.18-8.536S142.916,23.661,142.916,28.5Zm186.868,5.061c0-6.38,5.06-7.745,8.932-7.745h1.452v-.967c0-3.433-1.452-4.928-3.651-4.928a5.2,5.2,0,0,0-4.092,2.244l-1.892-2.332a8.154,8.154,0,0,1,6.336-3.124c5.06,0,6.732,3.389,6.732,9.284v8.932a34.679,34.679,0,0,0,.308,4.62h-3.08a26.256,26.256,0,0,1-.352-3.651h-.088a4.931,4.931,0,0,1-5.192,4.224C332.732,40.117,329.784,38.313,329.784,33.561Zm3.52-.4c0,2.684,1.363,3.916,2.9,3.916,3.036,0,4.047-4.092,4.047-7.128V28.677h-1.628C335.988,28.677,333.3,29.469,333.3,33.165Zm28.82,6.379V17.456h3.74V39.544Zm-12.452,0v-16.5c0-1.76-.043-3.96-.176-5.588h3.564a40.017,40.017,0,0,1,.264,4.576h.088c.748-3.652,2.6-5.324,4.8-5.324a2.144,2.144,0,0,1,.528.044l-.176,3.916a3.479,3.479,0,0,0-.748-.088c-2.816,0-4.356,3.96-4.356,7.789V39.544Zm-28.555,0V6.28H324.9V39.544Zm-35.288,0L278.172,8.392h4.356l5.94,26.576h.088L294.5,8.392h4.224l-7.788,31.152Zm-44.44,0v-16.5c0-1.76-.044-3.96-.176-5.588h3.564a39.811,39.811,0,0,1,.265,4.576h.087c.749-3.652,2.6-5.324,4.8-5.324a2.14,2.14,0,0,1,.528.044l-.176,3.916a3.472,3.472,0,0,0-.748-.088c-2.816,0-4.356,3.96-4.356,7.789V39.544Zm-69.872,0V25.465c0-2.508-.352-5.412-3.124-5.412-2.507,0-4.268,2.859-4.268,6.819V39.544h-3.74v-16.5c0-1.76-.043-3.96-.176-5.588h3.564c.176,1.453.264,3.124.264,3.829h.088c.836-2.552,2.816-4.576,5.544-4.576,4.752,0,5.632,4.4,5.632,8.756v14.08Zm-41.8,0V13.761h-.132l-6.952,25.783h-3.564L112.2,13.761h-.132V39.544H108.42V8.392h5.808l6.644,24.728h.176L127.56,8.392h6.072V39.544Zm-89.16-.9L30.406,13.035V38.64H24.477V17.829H24.4L17.332,38.64H12.81l-6.8-20.811H5.928V38.64H0V11.507H8.969l6.195,17.706h.077l6.232-17.706H36.567l6.651,17.781h.076l6.764-17.781h6.348L45.308,38.64ZM361.684,10.9a2.338,2.338,0,1,1,4.664,0,2.39,2.39,0,0,1-2.332,2.507A2.364,2.364,0,0,1,361.684,10.9Z" transform="translate(0.5 -1.025)" fill="#d08ac4" stroke="rgba(0,0,0,0)" stroke-miterlimit="10" stroke-width="1"/>
</svg>
